<?xml version="1.0" encoding="utf-8"?>
<!-- Generator: Adobe Illustrator 23.0.4, SVG Export Plug-In . SVG Version: 6.00 Build 0)  -->
<svg version="1.1" id="Layer_1" xmlns="http://www.w3.org/2000/svg" xmlns:xlink="http://www.w3.org/1999/xlink" x="0px" y="0px"
	 viewBox="0 0 182.61 42.99" style="enable-background:new 0 0 182.61 42.99;" xml:space="preserve">
<style type="text/css">
	.st0{fill:#58595B;}
	.st1{clip-path:url(#SVGID_2_);fill:#FFFFFF;}
</style>
<rect x="-0.12" y="-0.09" class="st0" width="182.84" height="43.21"/>
<g>
	<defs>
		<rect id="SVGID_1_" x="-0.12" y="-0.09" width="182.84" height="43.21"/>
	</defs>
	<clipPath id="SVGID_2_">
		<use xlink:href="#SVGID_1_"  style="overflow:visible;"/>
	</clipPath>
	<path class="st1" d="M166.16,26.89v1.04h1.37v5.1h1.17v-5.1h1.37v-1.04H166.16z M163.23,33.02l0.33-1.29h1.62l0.3,1.29h1.12
		l-1.48-6.13h-1.5l-1.52,6.13H163.23z M164.35,28.22h0.02l0.57,2.48h-1.16L164.35,28.22z M161.69,28.29
		c-0.2-0.87-0.84-1.49-1.89-1.49c-1.22,0-1.84,0.66-1.84,1.72c0,1.71,2.62,1.73,2.62,2.89c0,0.46-0.31,0.73-0.72,0.73
		c-0.35,0-0.77-0.26-0.91-1l-1.16,0.25c0.31,1.21,1.05,1.72,2,1.72c1.23,0,1.95-0.7,1.95-1.75c0-1.92-2.62-1.99-2.62-2.92
		c0-0.42,0.23-0.67,0.65-0.67c0.41,0,0.66,0.25,0.86,0.82L161.69,28.29z M154.65,28.71c0-0.68,0.3-0.87,0.76-0.87
		c0.47,0,0.76,0.19,0.76,0.87v2.5c0,0.68-0.3,0.87-0.76,0.87c-0.47,0-0.76-0.19-0.76-0.87V28.71z M153.48,31.05
		c0,1.51,0.8,2.06,1.94,2.06c1.14,0,1.94-0.54,1.94-2.06v-2.19c0-1.51-0.8-2.06-1.94-2.06c-1.14,0-1.94,0.54-1.94,2.06V31.05z
		 M149.78,33.02v-3.96h0.02l1.79,3.96h1.12v-6.13h-1.07v3.64h-0.02l-1.63-3.64h-1.28v6.13H149.78z M143.77,26.89v4.3
		c0,1.35,0.79,1.92,2,1.92c1.21,0,2.01-0.57,2.01-1.92v-4.3h-1.17v4.29c0,0.59-0.26,0.89-0.83,0.89c-0.57,0-0.82-0.3-0.82-0.89
		v-4.29H143.77z M140.82,33.02v-6.13h-1.07v1.94c-0.51-0.38-0.78-0.51-1.07-0.51c-0.83,0-1.17,0.65-1.17,1.84v1.12
		c0,1.19,0.34,1.84,1.17,1.84c0.48,0,0.95-0.36,1.14-0.64h0.02v0.56H140.82z M139.74,31.98c-0.21,0.23-0.41,0.33-0.65,0.33
		c-0.29,0-0.53-0.19-0.53-1.1v-0.99c0-0.92,0.24-1.1,0.53-1.1c0.24,0,0.43,0.1,0.65,0.33V31.98z M134.66,33.02v-3.49
		c0.23-0.21,0.48-0.42,0.7-0.42c0.29,0,0.39,0.2,0.39,0.51v3.4h1.07v-3.52c0-0.86-0.34-1.19-0.99-1.19c-0.44,0-0.81,0.27-1.2,0.61
		V28.4h-1.04v4.62H134.66z M131.71,31.89c-0.25,0.25-0.49,0.42-0.81,0.42c-0.29,0-0.48-0.18-0.48-0.48c0-0.48,0.65-0.84,1.28-1.06
		V31.89z M130.57,29.75c0-0.33,0.27-0.57,0.59-0.57c0.31,0,0.55,0.15,0.55,0.55v0.34c-1.33,0.4-2.35,0.86-2.35,1.93
		c0,0.75,0.42,1.1,1.06,1.1c0.54,0,0.96-0.22,1.28-0.54c0.03,0.19,0.05,0.33,0.08,0.45h1.07c-0.03-0.12-0.06-0.25-0.06-0.37v-2.93
		c0-0.82-0.43-1.4-1.57-1.4c-0.42,0-0.84,0.1-1.15,0.33c-0.31,0.23-0.53,0.59-0.57,1.11H130.57z M124.21,27.93h0.41
		c0.73,0,1.02,0.36,1.02,1.22v1.61c0,0.92-0.37,1.22-1.02,1.22h-0.41V27.93z M123.04,33.02h1.63c1.34,0,2.09-0.58,2.14-2.12v-1.89
		c-0.05-1.55-0.8-2.12-2.14-2.12h-1.63V33.02z M122.34,33.02v-1.04h-2.12v-1.62h1.55v-1.04h-1.55v-1.41h2.04v-1.04h-3.21v6.13
		H122.34z M114.69,26.89v1.04h1.37v5.1h1.17v-5.1h1.37v-1.04H114.69z M111.65,28.71c0-0.68,0.3-0.87,0.76-0.87
		c0.47,0,0.76,0.19,0.76,0.87v0.17h1.17v-0.02c0-1.51-0.8-2.06-1.94-2.06c-1.14,0-1.94,0.54-1.94,2.06v2.19
		c0,1.51,0.8,2.06,1.94,2.06c1.14,0,1.94-0.54,1.94-2.06V30.8h-1.17v0.41c0,0.68-0.3,0.87-0.76,0.87c-0.47,0-0.76-0.19-0.76-0.87
		V28.71z M106.82,33.02l0.33-1.29h1.62l0.3,1.29h1.12l-1.48-6.13h-1.5l-1.52,6.13H106.82z M107.95,28.22h0.02l0.57,2.48h-1.16
		L107.95,28.22z"/>
	<path class="st1" d="M164.82,20.98c-0.26-0.7-0.82-1.16-1.61-1.16c-0.76,0-1.46,0.42-1.46,1.29c0,1.55,2.09,1.34,2.09,2.23
		c0,0.25-0.2,0.41-0.52,0.41c-0.42,0-0.69-0.28-0.78-0.71l-0.96,0.26c0.52,1.16,1.1,1.32,1.74,1.32c0.89,0,1.54-0.48,1.54-1.4
		c0-1.38-2.09-1.39-2.09-2.11c0-0.24,0.19-0.42,0.43-0.42c0.32,0,0.6,0.2,0.74,0.63L164.82,20.98z M158.89,21.61v-0.26
		c0-0.41,0.2-0.66,0.63-0.66c0.43,0,0.63,0.25,0.63,0.66v0.26H158.89z M161.22,22.47v-1.08c0-0.94-0.71-1.57-1.7-1.57
		c-1.02,0-1.7,0.63-1.7,1.64v1.51c0,1.01,0.68,1.64,1.7,1.64c1.08,0,1.65-0.56,1.7-1.51h-1.07c0,0.36-0.18,0.65-0.63,0.65
		c-0.36,0-0.63-0.2-0.63-0.66v-0.61H161.22z M155.05,19.91h-1.07l1.26,4.62h1.05l1.26-4.62h-1.07l-0.71,2.97h-0.02L155.05,19.91z
		 M153.49,18.14h-1.07v0.97h1.07V18.14z M152.41,24.53h1.07v-4.62h-1.07V24.53z M150.14,20.98v2.72c0,0.66,0.46,0.92,1.16,0.92
		c0.2,0,0.41-0.01,0.61-0.04v-0.9c-0.07,0.01-0.13,0.01-0.21,0.01c-0.29,0-0.49-0.11-0.49-0.34v-2.36h0.69v-0.87h-0.69v-1.26h-1.07
		v1.26h-0.42v0.87H150.14z M148.29,23.39c-0.25,0.25-0.48,0.43-0.81,0.43c-0.29,0-0.48-0.18-0.48-0.48c0-0.49,0.65-0.84,1.28-1.06
		V23.39z M147.15,21.26c0-0.33,0.27-0.57,0.6-0.57c0.3,0,0.55,0.15,0.55,0.55v0.34c-1.33,0.4-2.35,0.86-2.35,1.93
		c0,0.75,0.42,1.11,1.06,1.11c0.54,0,0.96-0.22,1.28-0.54c0.03,0.19,0.05,0.33,0.08,0.45h1.07c-0.03-0.12-0.06-0.25-0.06-0.37v-2.93
		c0-0.82-0.43-1.4-1.57-1.4c-0.43,0-0.84,0.1-1.15,0.33c-0.31,0.23-0.53,0.59-0.57,1.1H147.15z M145.28,18.14h-1.07v0.97h1.07V18.14
		z M144.21,24.53h1.07v-4.62h-1.07V24.53z M141.93,20.98v2.72c0,0.66,0.46,0.92,1.16,0.92c0.2,0,0.41-0.01,0.61-0.04v-0.9
		c-0.07,0.01-0.14,0.01-0.21,0.01c-0.29,0-0.48-0.11-0.48-0.34v-2.36h0.69v-0.87H143v-1.26h-1.07v1.26h-0.42v0.87H141.93z
		 M141.06,18.14h-1.07v0.97h1.07V18.14z M139.99,24.53h1.07v-4.62h-1.07V24.53z M136.93,24.53v-3.49c0.23-0.2,0.48-0.42,0.7-0.42
		c0.29,0,0.39,0.2,0.39,0.51v3.4h1.07v-3.52c0-0.86-0.34-1.19-0.99-1.19c-0.44,0-0.81,0.27-1.2,0.61v-0.53h-1.04v4.62H136.93z
		 M135.01,18.39h-1.17v6.14h1.17V18.39z M127.31,18.39v1.04h1.37v5.1h1.17v-5.1h1.37v-1.04H127.31z M124.27,20.21
		c0-0.68,0.3-0.87,0.77-0.87c0.47,0,0.76,0.19,0.76,0.87v0.17h1.17v-0.02c0-1.51-0.8-2.06-1.94-2.06c-1.14,0-1.94,0.54-1.94,2.06
		v2.19c0,1.51,0.8,2.06,1.94,2.06c1.14,0,1.94-0.54,1.94-2.06V22.3h-1.17v0.41c0,0.68-0.3,0.87-0.76,0.87
		c-0.47,0-0.77-0.19-0.77-0.87V20.21z M119.44,24.53l0.33-1.29h1.62l0.3,1.29h1.12l-1.48-6.14h-1.5l-1.52,6.14H119.44z
		 M120.57,19.72h0.02l0.57,2.48h-1.16L120.57,19.72z M115.82,19.36h0.63c0.58,0,0.87,0.29,0.87,0.87c0,0.58-0.29,0.87-0.87,0.87
		h-0.63V19.36z M115.82,24.53v-2.46h0.52c1.44,0,2.15-0.68,2.15-1.84c0-1.15-0.71-1.84-2.15-1.84h-1.69v6.14H115.82z M109.29,24.53
		V19.7h0.02l1.25,4.83h0.88l1.25-4.83h0.02v4.83h1v-6.14h-1.64l-1.06,4.03h-0.02l-1.06-4.03h-1.64v6.14H109.29z M107.35,18.39h-1.17
		v6.14h1.17V18.39z"/>
	<path class="st1" d="M152.69,9.86c-0.18-0.03-0.36-0.05-0.51-0.05c-0.78,0-1.23,0.29-1.23,1.36v0.44h-0.48v0.87h0.48v3.55h1.07
		v-3.55h0.64v-0.87h-0.64v-0.48c0-0.23,0.11-0.39,0.37-0.39h0.31V9.86z M147.9,12.8c0-0.36,0.26-0.54,0.63-0.54
		c0.38,0,0.63,0.19,0.63,0.54v1.84c0,0.36-0.25,0.54-0.63,0.54c-0.37,0-0.63-0.19-0.63-0.54V12.8z M146.83,14.37
		c0,1.22,0.63,1.75,1.7,1.75c1.07,0,1.7-0.53,1.7-1.75v-1.29c0-1.22-0.63-1.75-1.7-1.75c-1.07,0-1.7,0.53-1.7,1.75V14.37z
		 M141.8,13.11v-0.25c0-0.41,0.19-0.66,0.63-0.66c0.43,0,0.63,0.25,0.63,0.66v0.25H141.8z M144.13,13.98V12.9
		c0-0.94-0.71-1.57-1.7-1.57c-1.02,0-1.7,0.63-1.7,1.64v1.51c0,1.01,0.68,1.64,1.7,1.64c1.08,0,1.65-0.56,1.7-1.51h-1.07
		c0,0.36-0.18,0.65-0.63,0.65c-0.36,0-0.63-0.2-0.63-0.66v-0.61H144.13z M137.96,11.41h-1.07l1.26,4.62h1.05l1.26-4.62h-1.07
		l-0.71,2.97h-0.02L137.96,11.41z M136.4,9.64h-1.07v0.97h1.07V9.64z M135.32,16.03h1.07v-4.62h-1.07V16.03z M133.05,12.48v2.72
		c0,0.66,0.46,0.92,1.16,0.92c0.2,0,0.41-0.01,0.61-0.04v-0.9c-0.07,0.01-0.14,0.01-0.21,0.01c-0.29,0-0.48-0.11-0.48-0.34v-2.36
		h0.69v-0.87h-0.69v-1.26h-1.07v1.26h-0.42v0.87H133.05z M131.2,14.89c-0.25,0.25-0.48,0.42-0.81,0.42c-0.29,0-0.48-0.18-0.48-0.49
		c0-0.48,0.65-0.84,1.28-1.06V14.89z M130.06,12.76c0-0.33,0.27-0.57,0.6-0.57c0.3,0,0.55,0.15,0.55,0.55v0.34
		c-1.33,0.4-2.35,0.86-2.35,1.93c0,0.75,0.42,1.1,1.06,1.1c0.54,0,0.96-0.22,1.27-0.54c0.03,0.19,0.05,0.33,0.08,0.45h1.07
		c-0.03-0.12-0.06-0.25-0.06-0.37v-2.93c0-0.82-0.43-1.4-1.57-1.4c-0.43,0-0.84,0.1-1.15,0.33c-0.31,0.23-0.89,0-0.94,0.52
		L130.06,12.76z M128.19,9.64h-1.07v0.97h1.07V9.64z M127.12,16.03h1.07v-4.62h-1.07V16.03z M124.84,12.48v2.72
		c0,0.66,0.46,0.92,1.15,0.92c0.21,0,0.41-0.01,0.61-0.04v-0.9c-0.07,0.01-0.14,0.01-0.21,0.01c-0.29,0-0.48-0.11-0.48-0.34v-2.36
		h0.69v-0.87h-0.69v-1.26h-1.07v1.26h-0.43v0.87H124.84z M123.97,9.64h-1.07v0.97h1.07V9.64z M122.9,16.03h1.07v-4.62h-1.07V16.03z
		 M119.84,16.03v-3.49c0.23-0.2,0.48-0.42,0.7-0.42c0.29,0,0.39,0.2,0.39,0.51v3.4H122v-3.52c0-0.86-0.34-1.19-0.99-1.19
		c-0.44,0-0.81,0.27-1.2,0.61v-0.53h-1.04v4.62H119.84z M117.87,9.64h-1.07v0.97h1.07V9.64z M116.8,16.03h1.07v-4.62h-1.07V16.03z
		 M111.64,16.03v-3.49c0.23-0.2,0.48-0.42,0.7-0.42c0.29,0,0.39,0.2,0.39,0.51v3.4h1.07v-3.52c0-0.86-0.34-1.19-0.99-1.19
		c-0.44,0-0.81,0.27-1.2,0.61v-0.53h-1.04v4.62H111.64z M106.82,16.03l0.33-1.29h1.62l0.3,1.29h1.12l-1.48-6.13h-1.5l-1.52,6.13
		H106.82z M107.95,11.22h0.02l0.57,2.48h-1.16L107.95,11.22z"/>
	<path class="st1" d="M88.86,33.14V23.1h6.28v10.04h4.44V9.9h-4.44v9.27h-6.28V9.9h-4.44v23.25H88.86z M70.31,16.79
		c0-2.58,1.13-3.28,2.9-3.28c1.77,0,2.9,0.71,2.9,3.28v0.64h4.44v-0.06c0-5.73-3.03-7.79-7.34-7.79c-4.31,0-7.34,2.06-7.34,7.79
		v8.31c0,5.73,3.03,7.79,7.34,7.79c4.31,0,7.34-2.06,7.34-7.79v-0.96h-4.44v1.55c0,2.58-1.13,3.29-2.9,3.29
		c-1.77,0-2.9-0.71-2.9-3.29V16.79z M51.06,33.14l1.26-4.89h6.15l1.13,4.89h4.25L58.24,9.9h-5.7l-5.76,23.25H51.06z M55.31,14.92
		h0.07l2.16,9.4h-4.41L55.31,14.92z M44.75,33.14v-3.93H36.7V23.1h5.89v-3.93H36.7v-5.34h7.73V9.9H32.26v23.25H44.75z M18.8,13.57
		h2.29c1.96,0,3.16,0.96,3.16,3.22s-1.19,3.22-3.16,3.22H18.8V13.57z M29.55,33.14l-4.38-10.37c2.48-0.93,3.51-3.03,3.51-5.92
		c0-4.38-2.54-6.96-7.89-6.96h-6.44v23.25h4.44v-9.47h2.12l3.86,9.47H29.55z"/>
</g>
</svg>
