<svg id="Layer_1" xmlns="http://www.w3.org/2000/svg" viewBox="0 0 375.76 84.07"><style>.st0{fill:#58585a}.st1{fill:#fff}</style><path class="st0" d="M0 0H375.76V84.07H0z"/><path class="st1" d="M176.83 66.97V45.43h13.46v21.54h9.53V17.13h-9.53v19.88h-13.46V17.13h-9.53v49.84h9.53zM137.07 31.9c0-5.52 2.42-7.04 6.21-7.04 3.8 0 6.21 1.52 6.21 7.04v1.38h9.53v-.14c0-12.29-6.49-16.7-15.74-16.7s-15.74 4.42-15.74 16.7v17.81c0 12.29 6.49 16.71 15.74 16.71s15.74-4.42 15.74-16.71v-2.07h-9.53v3.31c0 5.52-2.42 7.04-6.21 7.04-3.8 0-6.21-1.52-6.21-7.04V31.9zM95.79 66.97l2.69-10.49h13.19l2.42 10.49h9.11l-12.01-49.84H98.97L86.61 66.97h9.18zm9.12-39.07h.14l4.63 20.16h-9.46l4.69-20.16zM82.27 66.97v-8.42H65.01V45.43h12.63v-8.42H65.01V25.55h16.57v-8.42h-26.1v49.84h26.79zM26.63 25h4.9c4.21 0 6.76 2.07 6.76 6.9s-2.55 6.9-6.76 6.9h-4.9V25zm23.05 41.97L40.3 44.74c5.31-2 7.52-6.49 7.52-12.7 0-9.39-5.45-14.91-16.91-14.91H17.1v49.84h9.53v-20.3h4.56l8.28 20.29h10.21zm165.83-36.11l3.27-13.21h3.24l3.18 13.21h-2.42l-.64-2.78h-3.49l-.71 2.78h-2.43zm3.6-5.01h2.51l-1.23-5.34h-.04l-1.24 5.34zm7.43 5.01v-9.95h2.23v1.13c.84-.73 1.63-1.32 2.58-1.32 1.41 0 2.14.71 2.14 2.56v7.57h-2.3v-7.32c0-.66-.22-1.1-.84-1.1-.48 0-1.01.46-1.5.9v7.52h-2.31zm14.52-11.67V17.1h2.3v2.09h-2.3zm2.31 1.72v9.95h-2.3v-9.95h2.3zm2.12 9.95v-9.95h2.23v1.13c.84-.73 1.63-1.32 2.58-1.32 1.41 0 2.14.71 2.14 2.56v7.57h-2.3v-7.32c0-.66-.22-1.1-.84-1.1-.48 0-1.01.46-1.5.9v7.52h-2.31zm9.07-11.67V17.1h2.3v2.09h-2.3zm2.31 1.72v9.95h-2.3v-9.95h2.3zm1.5 2.3v-1.87h.92v-2.71h2.31v2.71h1.48v1.87h-1.48v5.09c0 .49.42.73 1.04.73.16 0 .31 0 .46-.02v1.94c-.44.07-.88.09-1.32.09-1.5 0-2.49-.55-2.49-1.98v-5.85h-.92zm6.36-4.02V17.1h2.3v2.09h-2.3zm2.31 1.72v9.95h-2.3v-9.95h2.3zm1.9 2.91c.09-1.12.55-1.88 1.23-2.38.66-.49 1.56-.71 2.47-.71 2.45 0 3.38 1.24 3.38 3.02v6.31c0 .27.06.55.13.8h-2.31c-.05-.26-.09-.57-.17-.97-.68.68-1.59 1.15-2.74 1.15-1.39 0-2.29-.77-2.29-2.38 0-2.3 2.2-3.29 5.07-4.15v-.73c0-.86-.53-1.19-1.19-1.19-.7 0-1.28.51-1.28 1.23h-2.3zm4.77 2.17c-1.37.48-2.76 1.24-2.76 2.29 0 .66.4 1.04 1.02 1.04.7 0 1.19-.37 1.74-.92v-2.41zm3.97-2.78v-1.87h.92v-2.71h2.31v2.71h1.48v1.87h-1.48v5.09c0 .49.42.73 1.04.73.16 0 .31 0 .46-.02v1.94c-.44.07-.88.09-1.32.09-1.5 0-2.49-.55-2.49-1.98v-5.85h-.92zm6.37-4.02V17.1h2.3v2.09h-2.3zm2.3 1.72v9.95h-2.3v-9.95h2.3zm5.43 6.4h.04l1.52-6.4h2.3l-2.71 9.95h-2.27l-2.71-9.95h2.3l1.53 6.4zm7.3-.88v1.32c0 .99.59 1.43 1.35 1.43.97 0 1.35-.62 1.35-1.39h2.3c-.11 2.05-1.33 3.26-3.66 3.26-2.2 0-3.66-1.35-3.66-3.53v-3.26c0-2.18 1.46-3.53 3.66-3.53 2.14 0 3.66 1.35 3.66 3.38v2.32h-5zm2.71-1.86v-.55c0-.88-.42-1.43-1.35-1.43-.93 0-1.35.55-1.35 1.43v.55h2.7zm9.22-.08c0-2.63 1.35-3.77 3.66-3.77 2.3 0 3.66 1.13 3.66 3.77v2.78c0 2.63-1.35 3.77-3.66 3.77s-3.66-1.13-3.66-3.77v-2.78zm2.3 3.37c0 .77.55 1.17 1.35 1.17s1.35-.4 1.35-1.17v-3.95c0-.77-.55-1.17-1.35-1.17-.81 0-1.35.4-1.35 1.17v3.95zm10.87-8.38h-.66c-.55 0-.79.35-.79.84v1.02h1.37v1.87h-1.37v7.65h-2.3v-7.65h-1.04v-1.87h1.04v-.94c0-2.3.97-2.93 2.65-2.93.33 0 .71.05 1.1.11v1.9zM216.55 48.91V35.7h2.53v13.21h-2.53zm4.36 0V35.7h3.53l2.29 8.67h.04l2.29-8.67h3.53v13.21h-2.16V38.52h-.04l-2.69 10.39h-1.9l-2.69-10.39h-.04v10.39h-2.16zm13.49 0V35.7h3.64c3.11 0 4.63 1.46 4.63 3.95s-1.52 3.95-4.63 3.95h-1.12v5.31h-2.52zm2.53-7.39h1.35c1.24 0 1.87-.62 1.87-1.87s-.62-1.87-1.87-1.87h-1.35v3.74zm5.19 7.39l3.27-13.21h3.24l3.18 13.21h-2.42l-.64-2.78h-3.49l-.71 2.78h-2.43zm3.61-5.01h2.51l-1.23-5.34h-.04l-1.24 5.34zm9.4 1.1c0 1.46.64 1.87 1.65 1.87 1.01 0 1.65-.4 1.65-1.87v-.88h2.53v.55c0 3.26-1.72 4.43-4.17 4.43s-4.17-1.17-4.17-4.43v-4.72c0-3.26 1.72-4.43 4.17-4.43s4.17 1.17 4.17 4.43v.04h-2.53v-.37c0-1.46-.64-1.87-1.65-1.87-1.01 0-1.65.4-1.65 1.87V45zm15.51-9.3v2.23h-2.95v10.98h-2.52V37.93h-2.95V35.7h8.42zm6.73 13.21V35.7h2.53v13.21h-2.53zm4.9 0v-9.95h2.23v1.13c.84-.73 1.63-1.32 2.58-1.32 1.41 0 2.14.71 2.14 2.56v7.57h-2.3v-7.32c0-.66-.22-1.1-.84-1.1-.48 0-1.01.46-1.5.9v7.52h-2.31zm9.44-11.67v-2.09h2.3v2.09h-2.3zm2.31 1.72v9.95h-2.3v-9.95h2.3zm1.49 2.3V39.4h.92v-2.71h2.31v2.71h1.48v1.87h-1.48v5.09c0 .49.42.73 1.04.73.16 0 .31 0 .46-.02V49c-.44.07-.88.09-1.32.09-1.5 0-2.49-.55-2.49-1.98v-5.85h-.92zm6.37-4.02v-2.09h2.3v2.09h-2.3zm2.31 1.72v9.95h-2.3v-9.95h2.3zm2.26 2.91c.09-1.12.55-1.88 1.23-2.38.66-.49 1.56-.71 2.47-.71 2.45 0 3.38 1.24 3.38 3.02v6.31c0 .27.06.55.13.8h-2.31c-.05-.26-.09-.57-.17-.97-.68.68-1.59 1.15-2.74 1.15-1.39 0-2.29-.77-2.29-2.38 0-2.3 2.2-3.29 5.07-4.15v-.73c0-.86-.53-1.19-1.19-1.19-.7 0-1.28.51-1.28 1.23h-2.3zm4.78 2.17c-1.37.48-2.76 1.24-2.76 2.29 0 .66.4 1.04 1.02 1.04.7 0 1.19-.37 1.74-.92v-2.41zm3.6-2.78V39.4h.92v-2.71h2.31v2.71h1.48v1.87h-1.48v5.09c0 .49.42.73 1.04.73.16 0 .31 0 .46-.02V49c-.44.07-.88.09-1.32.09-1.5 0-2.49-.55-2.49-1.98v-5.85h-.92zm6.37-4.02v-2.09h2.3v2.09h-2.3zm2.3 1.72v9.95h-2.3v-9.95h2.3zm5.43 6.4h.04l1.52-6.4h2.3l-2.71 9.95h-2.27l-2.71-9.95h2.3l1.53 6.4zm7.3-.88v1.32c0 .99.59 1.43 1.35 1.43.97 0 1.35-.62 1.35-1.39h2.3c-.11 2.05-1.33 3.26-3.66 3.26-2.2 0-3.66-1.35-3.66-3.53v-3.26c0-2.18 1.46-3.53 3.66-3.53 2.14 0 3.66 1.35 3.66 3.38v2.32h-5zm2.71-1.86v-.55c0-.88-.42-1.43-1.35-1.43-.93 0-1.35.55-1.35 1.43v.55h2.7zm8.71-.62c-.31-.92-.9-1.35-1.59-1.35-.53 0-.93.38-.93.9 0 1.54 4.5 1.57 4.5 4.54 0 1.98-1.39 3.02-3.31 3.02-1.39 0-2.63-.35-3.75-2.84l2.07-.57c.2.93.77 1.54 1.68 1.54.7 0 1.12-.33 1.12-.88 0-1.9-4.5-1.45-4.5-4.79 0-1.88 1.52-2.78 3.15-2.78 1.72 0 2.91.99 3.48 2.49l-1.92.72zM215.51 66.96l3.27-13.21h3.24l3.18 13.21h-2.42l-.64-2.78h-3.49l-.71 2.78h-2.43zm3.6-5.01h2.51l-1.23-5.34h-.04l-1.24 5.34zm9.4 1.1c0 1.46.64 1.87 1.65 1.87 1.01 0 1.65-.4 1.65-1.87v-.88h2.53v.55c0 3.26-1.72 4.43-4.17 4.43S226 65.98 226 62.72V58c0-3.26 1.72-4.43 4.17-4.43s4.17 1.17 4.17 4.43v.04h-2.53v-.37c0-1.46-.64-1.87-1.65-1.87-1.01 0-1.65.4-1.65 1.87v5.38zm15.15-9.3v2.23h-2.95v10.98h-2.52V55.98h-2.95v-2.23h8.42zm1.13 13.21V53.75h6.92v2.23h-4.39v3.04h3.35v2.23h-3.35v3.48h4.57v2.23h-7.1zm8.78-13.21h3.51c2.89 0 4.5 1.24 4.61 4.57v4.06c-.11 3.33-1.72 4.57-4.61 4.57h-3.51v-13.2zm2.53 10.98h.88c1.39 0 2.2-.66 2.2-2.63v-3.48c0-1.87-.62-2.63-2.2-2.63h-.88v8.74zm12.47-4.81c.09-1.12.55-1.88 1.23-2.38.66-.49 1.56-.71 2.47-.71 2.45 0 3.38 1.24 3.38 3.02v6.31c0 .27.06.55.13.81h-2.31c-.05-.26-.09-.57-.17-.97-.68.68-1.59 1.15-2.74 1.15-1.39 0-2.29-.77-2.29-2.38 0-2.31 2.2-3.29 5.07-4.15v-.73c0-.86-.53-1.19-1.19-1.19-.7 0-1.28.51-1.28 1.23h-2.3zm4.78 2.17c-1.37.48-2.76 1.24-2.76 2.29 0 .66.4 1.04 1.02 1.04.7 0 1.19-.37 1.74-.92v-2.41zm4.59 4.87v-9.95h2.23v1.13c.84-.73 1.63-1.32 2.58-1.32 1.41 0 2.14.71 2.14 2.56v7.57h-2.3v-7.32c0-.66-.22-1.1-.84-1.1-.48 0-1.01.46-1.5.9v7.52h-2.31zm13.97 0v-1.21h-.04c-.4.62-1.43 1.39-2.45 1.39-1.79 0-2.52-1.39-2.52-3.95v-2.41c0-2.56.73-3.95 2.52-3.95.62 0 1.21.29 2.31 1.1v-4.17h2.3v13.21h-2.12zm-.18-7.7c-.46-.49-.88-.71-1.39-.71-.62 0-1.13.4-1.13 2.38v2.12c0 1.98.51 2.38 1.13 2.38.51 0 .93-.22 1.39-.71v-5.46zm12.29-5.51v9.24c0 1.26.55 1.92 1.77 1.92s1.79-.66 1.79-1.92v-9.24h2.52v9.26c0 2.91-1.72 4.13-4.32 4.13s-4.3-1.23-4.3-4.13v-9.26h2.54zm8.29 13.21V53.75h2.76l3.51 7.83h.04v-7.83h2.3v13.21h-2.42l-3.86-8.53h-.04v8.53h-2.29zM322.75 58c0-3.26 1.72-4.43 4.17-4.43s4.17 1.17 4.17 4.43v4.72c0 3.26-1.72 4.43-4.17 4.43s-4.17-1.17-4.17-4.43V58zm2.53 5.05c0 1.46.64 1.87 1.65 1.87 1.01 0 1.65-.4 1.65-1.87v-5.38c0-1.46-.64-1.87-1.65-1.87-1.01 0-1.65.4-1.65 1.87v5.38zm13.07-5.62c-.42-1.24-.97-1.77-1.85-1.77-.9 0-1.39.55-1.39 1.45 0 1.99 5.63 2.14 5.63 6.28 0 2.27-1.56 3.77-4.21 3.77-2.05 0-3.64-1.12-4.32-3.71l2.49-.53c.29 1.59 1.21 2.16 1.96 2.16.88 0 1.55-.58 1.55-1.57 0-2.49-5.63-2.52-5.63-6.22 0-2.27 1.35-3.7 3.97-3.7 2.25 0 3.62 1.34 4.06 3.2l-2.26.64zm2.97 9.53l3.27-13.21h3.24l3.18 13.21h-2.42l-.64-2.78h-3.49l-.71 2.78h-2.43zm3.6-5.01h2.51l-1.23-5.34h-.04l-1.24 5.34zm13.74-8.2v2.23h-2.95v10.98h-2.52V55.98h-2.95v-2.23h8.42z"/></svg>