<svg enable-background="new 0 0 652 652" viewBox="0 0 652 652" xmlns="http://www.w3.org/2000/svg"><path d="m352.6 347v-108.3h199.7v-54.2h-199.7v-108.3h-54.4v108.3h-199.6v54.2h199.6v108.3z" fill="#d00c27"/><path d="m98.6 347 151.2-90.2h30.2v3l-146.2 87.2z" fill="#d00c27"/><path d="m370.8 163.5 146.2-87.3h35.3l-151.3 90.3h-30.2z" fill="#d00c27"/><path d="m436.3 256.8 116 69.2v21l-151.3-90.2z" fill="#d00c27"/><path d="m214.5 166.5-115.9-69.3v-21l151.2 90.3z" fill="#d00c27"/><g fill="#001f7e"><path d="m370.8 347h128.6l-128.6-76.7z"/><path d="m151.5 347h128.5v-76.7z"/><path d="m552.3 315.5v-58.7h-98.4z"/><path d="m98.6 107.8v58.7h98.3z"/><path d="m370.8 76.2v76.7l128.5-76.7z"/><path d="m98.6 256.8v58.7l98.3-58.7z"/><path d="m280 76.2h-128.5l128.5 76.7z"/><path d="m552.3 166.5v-58.7l-98.4 58.7z"/><path d="m546.2 550.5c-.3-.8-.8-1.5-1.4-2.1s-1.3-1.1-2.1-1.4-1.7-.5-2.7-.5-1.9.2-2.7.5c-.8.4-1.5.8-2.1 1.4s-1 1.3-1.4 2.1c-.3.8-.5 1.7-.6 2.6h13.5c.1-.9-.1-1.7-.5-2.6m.9 15.2c-1.8 1.3-4 2-6.7 2-1.9 0-3.5-.3-4.9-.9s-2.5-1.5-3.5-2.6c-.9-1.1-1.7-2.4-2.1-3.9-.5-1.5-.7-3.2-.8-5 0-1.8.3-3.4.8-4.9.6-1.5 1.3-2.8 2.3-3.9s2.2-1.9 3.5-2.6c1.4-.6 2.8-.9 4.4-.9 2.1 0 3.8.4 5.2 1.3s2.5 2 3.3 3.3 1.4 2.8 1.7 4.4.5 3.1.4 4.5h-17.7c0 1 .1 2 .4 2.9s.7 1.8 1.3 2.5 1.4 1.3 2.3 1.7 2 .6 3.3.6c1.6 0 3-.4 4-1.1 1-.8 1.7-1.9 2.1-3.5h3.8c-.2 2.8-1.3 4.8-3.1 6.1m-22 1.5h-3.9v-32.6h3.9zm-12.5-15.2c-.3-1-.7-2-1.3-2.8s-1.4-1.5-2.3-2-2-.7-3.3-.7-2.4.3-3.3.8-1.7 1.2-2.2 2c-.6.8-1 1.8-1.3 2.8-.3 1.1-.4 2.1-.4 3.2 0 1.2.1 2.3.4 3.4s.7 2 1.3 2.9c.6.8 1.4 1.5 2.3 2s2.1.7 3.4.7 2.5-.3 3.4-.8 1.6-1.2 2.2-2c.5-.9.9-1.8 1.2-2.9.2-1.1.4-2.2.4-3.4-.1-1.1-.2-2.2-.5-3.2m-14-8.4v3.2h.1c.6-1.3 1.6-2.3 3-2.8 1.4-.6 2.9-.9 4.5-.9 1.8 0 3.4.3 4.8 1s2.5 1.6 3.4 2.7 1.6 2.5 2 3.9c.5 1.5.7 3.1.7 4.8s-.2 3.3-.7 4.7c-.4 1.5-1.1 2.8-2 3.9s-2 2-3.4 2.6-2.9 1-4.7 1c-.6 0-1.2-.1-1.9-.2s-1.4-.3-2.1-.6-1.4-.6-2-1.1-1.1-1.1-1.6-1.8h-.1v12.1h-3.9v-32.6h3.9zm-26.1 15.6c.4 1.1.9 2 1.6 2.8.7.7 1.5 1.3 2.4 1.7s1.8.6 2.8.6 2-.2 2.9-.6 1.7-1 2.3-1.7c.7-.7 1.2-1.7 1.6-2.8s.6-2.4.6-3.8-.2-2.7-.6-3.8-.9-2-1.6-2.8-1.5-1.3-2.3-1.7c-.9-.4-1.9-.6-2.9-.6s-2 .2-2.8.6c-.9.4-1.7 1-2.4 1.7-.7.8-1.2 1.7-1.6 2.8s-.6 2.4-.6 3.8c.1 1.5.2 2.7.6 3.8m-3.9-8.6c.5-1.5 1.2-2.8 2.2-3.9s2.2-2 3.6-2.6 3.1-1 4.9-1c1.9 0 3.5.3 4.9 1 1.4.6 2.6 1.5 3.6 2.6s1.7 2.4 2.2 3.9.7 3.1.7 4.9c0 1.7-.2 3.4-.7 4.8-.5 1.5-1.2 2.8-2.2 3.9s-2.2 2-3.6 2.6-3.1.9-4.9.9c-1.9 0-3.5-.3-4.9-.9s-2.6-1.5-3.6-2.6-1.7-2.4-2.2-3.9-.7-3.1-.7-4.8c0-1.8.2-3.4.7-4.9m-7.9-.1c-.3-.8-.8-1.5-1.4-2.1s-1.3-1.1-2.1-1.4-1.7-.5-2.7-.5-1.9.2-2.7.5c-.8.4-1.5.8-2.1 1.4s-1 1.3-1.4 2.1c-.3.8-.5 1.7-.6 2.6h13.6c-.1-.9-.3-1.7-.6-2.6m.9 15.2c-1.8 1.3-4 2-6.7 2-1.9 0-3.5-.3-4.9-.9s-2.5-1.5-3.5-2.6c-.9-1.1-1.6-2.4-2.1-3.9s-.7-3.2-.8-5c0-1.8.3-3.4.8-4.9.6-1.5 1.3-2.8 2.3-3.9s2.2-1.9 3.5-2.6c1.4-.6 2.8-.9 4.4-.9 2.1 0 3.8.4 5.2 1.3s2.5 2 3.3 3.3 1.4 2.8 1.7 4.4.5 3.1.4 4.5h-17.7c0 1 .1 2 .4 2.9s.7 1.8 1.3 2.5 1.4 1.3 2.3 1.7 2 .6 3.3.6c1.6 0 3-.4 4-1.1 1-.8 1.7-1.9 2.1-3.5h3.8c-.2 2.8-1.3 4.8-3.1 6.1m-25.2-13.7c-.3-1-.7-2-1.3-2.8s-1.4-1.5-2.3-2-2-.7-3.3-.7-2.4.3-3.3.8-1.7 1.2-2.2 2c-.6.8-1 1.8-1.3 2.8-.3 1.1-.4 2.1-.4 3.2 0 1.2.1 2.3.4 3.4s.7 2 1.3 2.9c.6.8 1.4 1.5 2.3 2s2.1.7 3.4.7 2.5-.3 3.4-.8 1.6-1.2 2.2-2c.5-.9.9-1.8 1.2-2.9.2-1.1.4-2.2.4-3.4 0-1.1-.2-2.2-.5-3.2m-13.9-8.4v3.2h.1c.6-1.3 1.6-2.3 3-2.8 1.4-.6 2.9-.9 4.5-.9 1.8 0 3.4.3 4.8 1s2.5 1.6 3.4 2.7 1.6 2.5 2 3.9c.5 1.5.7 3.1.7 4.8s-.2 3.3-.7 4.7c-.4 1.5-1.1 2.8-2 3.9s-2 2-3.4 2.6-2.9 1-4.7 1c-.6 0-1.2-.1-1.9-.2s-1.4-.3-2.1-.6-1.4-.6-2-1.1-1.1-1.1-1.6-1.8h-.1v12.1h-3.9v-32.6h3.9zm-38.2-9v12.5h.1c.3-.7.7-1.3 1.3-1.9.6-.5 1.2-.9 1.9-1.2s1.4-.6 2.1-.7c.7-.2 1.5-.2 2.2-.2 1.5 0 2.8.2 3.9.6 1 .4 1.9 1 2.5 1.8s1.1 1.7 1.3 2.7c.3 1 .4 2.2.4 3.5v15.5h-3.9v-16c0-1.5-.4-2.6-1.3-3.5s-2-1.3-3.5-1.3c-1.2 0-2.2.2-3.1.6s-1.6.9-2.2 1.5c-.6.7-1 1.5-1.3 2.3-.3.9-.4 1.9-.4 2.9v13.3h-3.9v-32.6h3.9zm-23.2 27.3c.4.6.8 1.1 1.4 1.4.6.4 1.3.6 2 .8s1.5.2 2.3.2c.6 0 1.2 0 1.9-.1s1.3-.3 1.9-.5 1-.6 1.4-1.1.5-1.1.5-1.8c0-1-.4-1.8-1.1-2.3-.8-.5-1.7-.9-2.9-1.3-1.1-.3-2.4-.6-3.7-.9s-2.6-.6-3.7-1.1-2.1-1.1-2.9-2-1.1-2-1.1-3.6c0-1.2.3-2.2.8-3.1s1.2-1.5 2-2.1c.8-.5 1.8-.9 2.8-1.2s2.1-.4 3.1-.4c1.3 0 2.6.1 3.7.3s2.1.6 3 1.2 1.6 1.3 2.1 2.3.8 2.2.9 3.6h-3.9c-.1-.8-.3-1.4-.6-1.9s-.8-.9-1.3-1.2-1.1-.5-1.7-.7c-.6-.1-1.3-.2-1.9-.2s-1.2.1-1.8.1c-.6.1-1.1.2-1.6.5-.5.2-.9.5-1.2.9s-.5.9-.5 1.5c0 .7.2 1.2.7 1.7.5.4 1.1.8 1.8 1.1s1.6.5 2.5.7 1.8.4 2.7.6c1 .2 1.9.5 2.9.8.9.3 1.7.7 2.5 1.2.7.5 1.3 1.1 1.7 1.9s.7 1.7.7 2.8c0 1.4-.3 2.6-.9 3.6-.6.9-1.4 1.7-2.3 2.3s-2 1-3.2 1.2-2.4.3-3.6.3c-1.3 0-2.6-.1-3.7-.4-1.2-.3-2.2-.7-3.1-1.3s-1.6-1.5-2.2-2.5-.9-2.3-.9-3.7h3.9c.1 1.1.3 1.8.6 2.4m-8.4 5.3h-3.9v-23.6h3.9zm-3.9-32.6h3.9v4.7h-3.9zm-3.5 9v3.4h-4.7v14.6c0 .5 0 .8.1 1.1s.2.5.4.6c.2.2.5.2.9.3s.9.1 1.5.1h1.8v3.4h-3c-1 0-1.9-.1-2.6-.2s-1.3-.4-1.7-.8-.8-.9-1-1.5c-.2-.7-.3-1.6-.3-2.7v-15h-4v-3.4h4v-7.1h3.9v7.1h4.7zm-15.4 23.6h-3.9v-23.6h3.9zm-3.9-32.6h3.9v4.7h-3.9zm-11.3 9v5h.1c.9-1.9 2.1-3.3 3.5-4.2s3.1-1.3 5.2-1.3v4.1c-1.5 0-2.9.2-4 .6s-2 1-2.6 1.9c-.7.8-1.2 1.8-1.5 3s-.5 2.5-.5 4v10.5h-3.9v-23.6zm-18.4 19.9c1.9 0 3.4-.5 4.5-1.5s1.6-2.5 1.6-4.3c0-1.1-.2-1.9-.6-2.7-.4-.7-.9-1.3-1.6-1.7s-1.4-.7-2.3-.9-1.7-.2-2.6-.2h-9.9v11.3zm-2.2-14.9c2.5 0 4.2-.4 5.3-1.3s1.6-2.2 1.6-3.9c0-1.2-.2-2.1-.6-2.7-.4-.7-.9-1.2-1.5-1.5-.6-.4-1.4-.6-2.2-.7s-1.7-.2-2.7-.2h-8.7v10.4h8.8zm-1.2-14h2.3c.8 0 1.6.1 2.4.1.8.1 1.5.2 2.2.3.7.2 1.3.4 1.8.7 1.1.6 2 1.5 2.7 2.7.7 1.1 1.1 2.5 1.1 4.2s-.4 3.2-1.3 4.5c-.8 1.3-2 2.2-3.6 2.8v.1c2 .4 3.5 1.3 4.6 2.7s1.6 3.1 1.6 5.1c0 1.2-.2 2.3-.6 3.5-.4 1.1-1.1 2.1-1.9 3s-1.9 1.6-3.1 2.1-2.7.8-4.3.8h-15.7v-32.6zm-33.9 15.9c-.3-.8-.8-1.5-1.4-2.1s-1.3-1.1-2.1-1.4-1.7-.5-2.7-.5-1.9.2-2.7.5c-.8.4-1.5.8-2.1 1.4s-1 1.3-1.4 2.1c-.3.8-.5 1.7-.6 2.6h13.5c.1-.9-.1-1.7-.5-2.6m1 15.2c-1.8 1.3-4 2-6.7 2-1.9 0-3.5-.3-4.9-.9s-2.5-1.5-3.5-2.6c-.9-1.1-1.6-2.4-2.1-3.9s-.7-3.2-.8-5c0-1.8.3-3.4.8-4.9.6-1.5 1.3-2.8 2.3-3.9s2.2-1.9 3.5-2.6c1.4-.6 2.8-.9 4.4-.9 2.1 0 3.8.4 5.2 1.3s2.5 2 3.3 3.3 1.4 2.8 1.7 4.4.5 3.1.4 4.5h-17.7c0 1 .1 2 .4 2.9s.7 1.8 1.3 2.5 1.4 1.3 2.3 1.7 2 .6 3.3.6c1.6 0 3-.4 4-1.1 1-.8 1.7-1.9 2.1-3.5h3.8c-.2 2.8-1.4 4.8-3.1 6.1m-37.5-31.1v12.5h.1c.3-.7.7-1.3 1.3-1.9.5-.5 1.2-.9 1.8-1.2.7-.3 1.4-.6 2.1-.7.7-.2 1.5-.2 2.2-.2 1.5 0 2.8.2 3.9.6 1 .4 1.9 1 2.5 1.8s1.1 1.7 1.3 2.7c.3 1 .4 2.2.4 3.5v15.5h-3.9v-16c0-1.5-.4-2.6-1.3-3.5s-2-1.3-3.5-1.3c-1.2 0-2.2.2-3.1.6s-1.6.9-2.2 1.5c-.6.7-1 1.5-1.3 2.3-.3.9-.4 1.9-.4 2.9v13.3h-3.9v-32.6h4zm-7.2 9v3.4h-4.7v14.6c0 .5 0 .8.1 1.1s.2.5.4.6c.2.2.5.2.9.3.4 0 .9.1 1.5.1h1.8v3.4h-3c-1 0-1.9-.1-2.6-.2s-1.3-.4-1.7-.8-.8-.9-1-1.5c-.2-.7-.3-1.6-.3-2.7v-15h-4v-3.4h4v-7.1h3.9v7.1h4.7zm-58 0v3.5h.1c1.8-2.7 4.3-4 7.6-4 1.5 0 2.8.3 4 .9s2 1.6 2.5 3.1c.8-1.3 1.8-2.3 3.1-3s2.7-1 4.3-1c1.2 0 2.3.1 3.2.4 1 .3 1.8.7 2.5 1.2.7.6 1.2 1.3 1.6 2.1.4.9.6 1.9.6 3.1v17.3h-3.9v-15.5c0-.7-.1-1.4-.2-2.1-.1-.6-.3-1.2-.7-1.7-.3-.5-.8-.8-1.4-1.1s-1.4-.4-2.3-.4c-1.9 0-3.4.6-4.5 1.6-1.1 1.1-1.6 2.6-1.6 4.4v14.7h-3.9v-15.5c0-.8-.1-1.5-.2-2.1s-.4-1.2-.7-1.7-.8-.8-1.3-1.1c-.6-.3-1.3-.4-2.2-.4-1.1 0-2.1.2-2.9.7s-1.5 1-2 1.6-.9 1.3-1.1 2-.3 1.3-.3 1.7v14.7h-3.9v-23.6h3.6zm-25.9 15.6c.4 1.1.9 2 1.6 2.8.7.7 1.4 1.3 2.3 1.7s1.8.6 2.8.6 2-.2 2.9-.6 1.7-1 2.3-1.7c.7-.7 1.2-1.7 1.6-2.8s.6-2.4.6-3.8-.2-2.7-.6-3.8-.9-2-1.6-2.8-1.4-1.3-2.3-1.7-1.9-.6-2.9-.6-1.9.2-2.8.6-1.7 1-2.3 1.7c-.7.8-1.2 1.7-1.6 2.8s-.6 2.4-.6 3.8c.1 1.5.3 2.7.6 3.8m-3.9-8.6c.5-1.5 1.2-2.8 2.2-3.9s2.2-2 3.6-2.6 3.1-1 4.9-1c1.9 0 3.5.3 5 1 1.4.6 2.6 1.5 3.6 2.6s1.7 2.4 2.2 3.9.7 3.1.7 4.9c0 1.7-.2 3.4-.7 4.8-.5 1.5-1.2 2.8-2.2 3.9s-2.2 2-3.6 2.6-3.1.9-5 .9-3.5-.3-4.9-.9-2.6-1.5-3.6-2.6-1.7-2.4-2.2-3.9-.7-3.1-.7-4.8c0-1.8.2-3.4.7-4.9m-10.4-7v5h.1c.9-1.9 2.1-3.3 3.5-4.2s3.1-1.3 5.2-1.3v4.1c-1.6 0-2.9.2-4 .6s-2 1-2.7 1.9c-.7.8-1.2 1.8-1.5 3s-.5 2.5-.5 4v10.5h-3.9v-23.6zm-18.7 3.4v-3.4h4v-3.5c0-1.9.6-3.4 1.7-4.4s2.7-1.5 4.9-1.5c.4 0 .8 0 1.3.1s.9.2 1.3.3v3.4c-.3-.1-.7-.2-1.1-.3-.4 0-.8-.1-1.1-.1-.9 0-1.7.2-2.2.5-.5.4-.8 1.1-.8 2.1v3.3h4.6v3.4h-4.6v20.2h-3.9v-20.1z"/></g><path d="m520.7 480.9c3.8-5.5 5.8-12.6 5.8-21.3 0-12.2-3.1-20.9-9.2-26.1-3.8-3.2-8.2-4.8-13.2-4.8-7.6 0-13.2 2.9-16.8 8.6-3.6 5.8-5.3 12.9-5.3 21.4 0 9.2 1.8 16.6 5.4 22.1s9.1 8.3 16.5 8.3c7.4.1 13-2.7 16.8-8.2m-6.4-70.9c4.7 2.7 8.5 6.3 11.4 11v-47.5h26.4v134.5h-25.3v-13.8c-3.7 5.9-8 10.2-12.7 12.9-4.8 2.7-10.7 4-17.7 4-11.6 0-21.4-4.7-29.4-14.1s-11.9-21.5-11.9-36.2c0-17 3.9-30.4 11.8-40.1 7.8-9.7 18.3-14.6 31.4-14.6 6-.1 11.3 1.2 16 3.9m-101.3 98h26.4v-99.6h-26.4zm26.5-134.6h-26.5v26.4h26.4v-26.4zm-73.1 86.2c-1.7 1-3.4 1.9-5.1 2.5s-4 1.2-7 1.8l-5.9 1.1c-5.6 1-9.5 2.2-12 3.6-4.1 2.4-6.2 6.1-6.2 11.1 0 4.4 1.3 7.7 3.8 9.6 2.5 2 5.6 3 9.1 3 5.7 0 10.9-1.6 15.7-4.9s7.3-9.3 7.5-18v-9.8zm-16-12.2c4.8-.6 8.3-1.4 10.4-2.3 3.7-1.6 5.6-4 5.6-7.4 0-4.1-1.4-6.9-4.3-8.5-2.9-1.5-7.1-2.3-12.6-2.3-6.2 0-10.7 1.5-13.2 4.6-1.9 2.3-3.1 5.3-3.7 9.1h-25.1c.6-8.7 3-15.9 7.3-21.5 6.9-8.8 18.8-13.2 35.6-13.2 11 0 20.7 2.2 29.2 6.5s12.8 12.5 12.8 24.5v45.7c0 3.2.1 7 .2 11.5.2 3.4.7 5.7 1.5 6.9.9 1.2 2.1 2.2 3.8 3v3.8h-28.3c-.8-2-1.3-3.9-1.6-5.7s-.6-3.8-.7-6c-3.6 3.9-7.8 7.2-12.5 10-5.6 3.2-12 4.8-19.1 4.8-9.1 0-16.6-2.6-22.5-7.7-5.9-5.2-8.9-12.4-8.9-21.9 0-12.2 4.8-21.1 14.3-26.6 5.2-3 12.9-5.1 23-6.4z" fill="#d00c27"/><path d="m201.7 405.6h21v42.2l39.6-42.2h27.6l-42 42.1 44.2 60.3h-27.5l-31.6-44.7-10.3 10.5v34.2h-21z" fill="#001f7e"/><path d="m98.6 405.6h21.7v62.9c0 7 .8 12.2 2.5 15.4 2.6 5.7 8.2 8.6 16.9 8.6 8.6 0 14.2-2.9 16.8-8.6 1.7-3.2 2.5-8.4 2.5-15.4v-62.9h21.7v62.9c0 10.9-1.7 19.4-5.1 25.4-6.3 11.1-18.3 16.7-36 16.7s-29.7-5.6-36.1-16.7c-3.4-6.1-5.1-14.5-5.1-25.4v-62.9z" fill="#001f7e"/></svg>